<?xml version="1.0" encoding="UTF-8"?>
<svg width="32" height="32" viewBox="0 0 32 32" fill="none" xmlns="http://www.w3.org/2000/svg">
  <rect width="32" height="32" rx="8" fill="#16A34A"/>
  <path d="M8 16C8 12.6863 10.6863 10 14 10H18C21.3137 10 24 12.6863 24 16V20C24 21.1046 23.1046 22 22 22H10C8.89543 22 8 21.1046 8 20V16Z" fill="white"/>
  <path d="M16 8C16 6.89543 16.8954 6 18 6H20C21.1046 6 22 6.89543 22 8V10H16V8Z" fill="#BBF7D0"/>
  <path d="M12 14C12 12.8954 12.8954 12 14 12H18C19.1046 12 20 12.8954 20 14V16H12V14Z" fill="#BBF7D0"/>
</svg>
